<svg id="Icons" xmlns="http://www.w3.org/2000/svg" viewBox="0 0 128 128"><defs><style>.cls-1{fill:#a8e58f;}.cls-2{fill:#fff;}.cls-3{fill:#787878;}</style></defs><circle class="cls-1" cx="97.71" cy="90.92" r="25.48"/><polygon class="cls-2" points="110.66 88.77 99.86 88.77 99.86 77.97 95.55 77.97 95.55 88.77 84.75 88.77 84.75 93.08 95.55 93.08 95.55 103.88 99.86 103.88 99.86 93.08 110.66 93.08 110.66 88.77"/><path class="cls-3" d="M67.26,92.45H7.84a39.29,39.29,0,0,1,30.51-37l4-.94-3.68-1.86a20.12,20.12,0,1,1,18.5-.17l-3.65,1.94,4,.85a39.34,39.34,0,0,1,20.88,12c.78-.63,1.58-1.23,2.42-1.78A42.28,42.28,0,0,0,61.62,53.26a23.15,23.15,0,1,0-27.36.24A42.29,42.29,0,0,0,4.81,94v1.5H67.56C67.42,94.46,67.31,93.46,67.26,92.45Z"/></svg>