<svg id="Icons" xmlns="http://www.w3.org/2000/svg" viewBox="0 0 128 128"><defs><style>.cls-1{fill:#787878;}.cls-2{fill:#a8e58f;fill-rule:evenodd;}</style></defs><path class="cls-1" d="M51.23,46.85H18.86V23.26H51.23Zm-29.37-3H48.23V26.26H21.86Z"/><rect class="cls-1" x="59.14" y="30.09" width="23.14" height="3"/><rect class="cls-1" x="59.14" y="37.01" width="23.14" height="3"/><path class="cls-1" d="M51.23,82.85H18.86V59.26H51.23Zm-29.37-3H48.23V62.26H21.86Z"/><rect class="cls-1" x="59.14" y="66.09" width="23.14" height="3"/><rect class="cls-1" x="59.14" y="73.01" width="23.14" height="3"/><path class="cls-2" d="M121.93,15.67l-8.37-7.1L79,49.26l8.37,7.11Z"/><path class="cls-2" d="M77.67,50.51,74.81,62.57,86.22,57.7l-8.55-7.19Z"/><polygon class="cls-1" points="92.07 58.55 92.07 120 9.07 120 9.07 8 92.07 8 92.07 26.14 95.07 22.61 95.07 5 6.07 5 6.07 123 95.07 123 95.07 55.02 92.07 58.55"/></svg>