<svg id="Icons" xmlns="http://www.w3.org/2000/svg" viewBox="0 0 128 128"><defs><style>.cls-1{fill:#787878;}.cls-2{fill:#a8e58f;fill-rule:evenodd;}</style></defs><path class="cls-1" d="M39.59,61.1A27.49,27.49,0,1,1,12.1,88.59,27.48,27.48,0,0,1,39.59,61.1m0-3A30.49,30.49,0,1,0,70.07,88.59,30.53,30.53,0,0,0,39.59,58.1Z"/><path class="cls-2" d="M55.92,80.34c-1.65-7.14-10.43-17-23-11.67-13.23,6.55-9.45,18.62-9.45,18.62.5,2.56,3.83,7.6,3.83,7.6L40.13,112,51.8,95.41S57.57,87.47,55.92,80.34ZM39.59,87a5.61,5.61,0,1,1,5.79-5.61A5.7,5.7,0,0,1,39.59,87Z"/><path class="cls-1" d="M5,5V123H123V5ZM8,120v-7.58A40,40,0,0,0,15.53,120Zm12.82,0A36.81,36.81,0,0,1,8,107.05V70.13A36.59,36.59,0,1,1,58.36,120ZM120,120H104.75l-.76-5,2.84-7.34L98.5,98.59l-14.74-4q-.21,1.5-.51,3l13.63,3.67,6.48,7-2.46,6.34.82,5.35H63.65A39.57,39.57,0,1,0,8,64.76V8H51.63L49,15.06,33.87,13.59l9.28,23.57L54,35.77l-3.4,9.61c1,.24,1.93.53,2.88.84l5-14L45.08,33.89,38.46,17.05l12.48,1.22L54.84,8h34L68.45,23l6,28.82,10.69,6.22,2.06,9L80.55,71c.4.93.76,1.87,1.1,2.83l9-5.25L87.79,56.12l-10.66-6.2L71.78,24.3,93.94,8H120Z"/></svg>