<svg id="Icons" xmlns="http://www.w3.org/2000/svg" viewBox="0 0 128 128"><defs><style>.cls-1{fill:#83b54d;}.cls-2{fill:#fff;}</style></defs><rect class="cls-1" x="5" y="20.5" width="118" height="87"/><rect class="cls-2" x="13.11" y="29.35" width="101.79" height="3"/><path class="cls-2" d="M114.44,74.56V67.44l-4.57-.67a18,18,0,0,0-2.22-5.36l2.75-3.71-5-5-3.7,2.76a18,18,0,0,0-5.36-2.22l-.67-4.57H88.52l-.67,4.57a18,18,0,0,0-5.36,2.22l-3.71-2.76-5,5,2.75,3.71a18.23,18.23,0,0,0-2.21,5.36l-4.57.67v7.12l4.57.67a18.23,18.23,0,0,0,2.21,5.36L73.75,84.3l5,5,3.71-2.76a18,18,0,0,0,5.36,2.22l.67,4.57h7.12l.67-4.57a18,18,0,0,0,5.36-2.22l3.7,2.76,5-5-2.75-3.71a18,18,0,0,0,2.22-5.36ZM92.08,80.71A9.71,9.71,0,1,1,101.79,71,9.71,9.71,0,0,1,92.08,80.71Z"/><polygon class="cls-2" points="49.5 74.46 49.5 43.49 26.5 43.49 26.5 74.46 13 74.46 25.5 86.49 38 98.51 50.5 86.49 63 74.46 49.5 74.46"/></svg>