<svg id="Icons" xmlns="http://www.w3.org/2000/svg" viewBox="0 0 128 128"><defs><style>.cls-1{fill:#a8e58f;}.cls-2{fill:#fff;}.cls-3{fill:#787878;}</style></defs><circle class="cls-1" cx="64" cy="64" r="17.58"/><rect class="cls-2" x="56.97" y="59" width="14.05" height="3"/><rect class="cls-2" x="56.97" y="66" width="14.05" height="3"/><path class="cls-3" d="M56,17V42.89A23.13,23.13,0,0,1,59,42V20h61V61H86.38a22.79,22.79,0,0,1,.2,3H123V17Z"/><rect class="cls-3" x="74.46" y="33.5" width="30.08" height="3"/><rect class="cls-3" x="84.46" y="44.5" width="20.08" height="3"/><path class="cls-3" d="M69,86v22H8V67H41.62a22.79,22.79,0,0,1-.2-3H5v47H72V85.11A23.13,23.13,0,0,1,69,86Z"/><rect class="cls-3" x="23.46" y="80.5" width="20.08" height="3"/><rect class="cls-3" x="23.46" y="91.5" width="30.08" height="3"/></svg>