<svg id="Icons" xmlns="http://www.w3.org/2000/svg" viewBox="0 0 128 128"><defs><style>.cls-1{fill:#787878;}.cls-2{fill:#a8e58f;fill-rule:evenodd;}</style></defs><path class="cls-1" d="M65.5,49.3a11.47,11.47,0,1,0-3,0V67.38H15v19.5a11.47,11.47,0,1,0,3,0V70.38H62.5v16.5a11.47,11.47,0,1,0,3,0V70.38H88v-3H65.5ZM25,98.25a8.48,8.48,0,1,1-8.47-8.48A8.48,8.48,0,0,1,25,98.25Zm47.52,0A8.47,8.47,0,1,1,64,89.77,8.48,8.48,0,0,1,72.47,98.25ZM55.53,37.93A8.47,8.47,0,1,1,64,46.41,8.48,8.48,0,0,1,55.53,37.93Z"/><path class="cls-1" d="M113,86.88V67.38h-8v3h5v16.5a11.48,11.48,0,1,0,3,0Zm-1.5,19.84A8.48,8.48,0,1,1,120,98.25,8.48,8.48,0,0,1,111.52,106.72Z"/><path class="cls-2" d="M100.11,43V76.75l-7.37-6.09.06-27.77L71.3,18.28h50.4Z"/></svg>