<svg id="Icons" xmlns="http://www.w3.org/2000/svg" viewBox="0 0 128 128"><defs><style>.cls-1{fill:#a8e58f;fill-rule:evenodd;}.cls-2{fill:#787878;}</style></defs><path class="cls-1" d="M18.78,96.27C10.39,91,5,82.92,5,73.81,5,58,21.19,45.22,41.13,45.22S77.26,58,77.26,73.81,61.07,102.4,41.13,102.4a45.2,45.2,0,0,1-9.12-.92L17.44,111.83Z"/><path class="cls-2" d="M123,45.36c0-16.1-16.37-29.19-36.5-29.19-18,0-33.2,10.32-36,24.55l-.08.37c1,.19,2,.39,2.94.64l.08-.42c2.52-12.62,16.75-22.14,33.1-22.14C105,19.17,120,30.92,120,45.36c0,8-4.61,15.47-12.65,20.49l-.78.49,1.1,12.76-12-8.53L95,70.7a42.26,42.26,0,0,1-8.53.86c-1.32,0-2.62-.06-3.87-.17l-.5,0c.08.82.13,1.64.13,2.47,0,.19,0,.37,0,.55h.11c1.34.13,2.74.19,4.15.19A45.92,45.92,0,0,0,95,73.77L111.22,85.3l-1.5-17.4C118.17,62.32,123,54.16,123,45.36Z"/></svg>