<svg id="Icons" xmlns="http://www.w3.org/2000/svg" viewBox="0 0 128 128"><defs><style>.cls-1{fill:#efb041;}.cls-2{fill:#83b54d;}</style></defs><polygon class="cls-1" points="108.35 91.5 108.35 74.11 105.21 74.11 105.21 91.39 92.28 104.32 74.02 104.32 74.02 107.46 92.19 107.46 106.72 122 122.79 105.94 108.35 91.5"/><path class="cls-1" d="M85.59,6C74.62,6,66,11.26,66,18c0,6.39,7.8,11.45,18,11.92V44.17h3.15V29.88c10.19-.48,18-5.54,18-11.92C105.15,11.26,96.56,6,85.59,6Z"/><path class="cls-1" d="M44.16,58.84c-1.23-5.94-9.29-10.4-19.38-10.4-11,0-19.57,5.26-19.57,12s8.6,12,19.57,12c10.09,0,18.15-4.45,19.38-10.39H60V58.84Z"/><rect class="cls-2" x="59.17" y="44.17" width="63.61" height="30.09"/><rect class="cls-2" x="10.98" y="90.26" width="63.61" height="30.09"/></svg>