<svg id="Icons" xmlns="http://www.w3.org/2000/svg" viewBox="0 0 128 128"><defs><style>.cls-1{fill:#83b54d;}.cls-2{fill:#fff;}</style></defs><rect class="cls-1" x="5" y="20.5" width="118" height="87"/><path class="cls-2" d="M96,75.09V64.91l-6.54-1a25.86,25.86,0,0,0-3.17-7.66L90.23,51,83,43.77l-5.31,3.94a25.86,25.86,0,0,0-7.66-3.17l-1-6.54H58.91l-1,6.54a25.86,25.86,0,0,0-7.66,3.17L45,43.77,37.77,51l3.94,5.31a25.86,25.86,0,0,0-3.17,7.66l-6.54,1V75.09l6.54,1a25.86,25.86,0,0,0,3.17,7.66L37.77,89l7.2,7.2,5.31-3.94a26,26,0,0,0,7.66,3.17l1,6.54H69.09l1-6.54a26,26,0,0,0,7.66-3.17L83,96.23l7.2-7.2-3.94-5.31a25.86,25.86,0,0,0,3.17-7.66ZM64,83.9A13.9,13.9,0,1,1,77.9,70,13.9,13.9,0,0,1,64,83.9Z"/><rect class="cls-2" x="13.11" y="29.35" width="101.79" height="3"/></svg>