<svg id="Icons" xmlns="http://www.w3.org/2000/svg" viewBox="0 0 128 128"><defs><style>.cls-1{fill:#787878;}.cls-2{fill:#a8e58f;}</style></defs><circle class="cls-1" cx="38.21" cy="42.57" r="3"/><circle class="cls-1" cx="38.21" cy="85.43" r="3"/><circle class="cls-1" cx="38.21" cy="63.69" r="3"/><path class="cls-1" d="M85.13,64.33l-.41-1.44a8.49,8.49,0,0,0-6.67-6.16l-1.49-.2.39-3,1.49.19a11.46,11.46,0,0,1,9.17,8.33L88,63.53Z"/><path class="cls-2" d="M112.94,87.78,93.35,73.65c.18-.35.36-.71.52-1.08a18.65,18.65,0,1,0-24.4,10,18.77,18.77,0,0,0,7.19,1.45,18.7,18.7,0,0,0,15.15-7.82l19.37,14ZM82.61,79.87a15.66,15.66,0,0,1-11.92-29h0a15.66,15.66,0,1,1,11.92,29Z"/><polygon class="cls-1" points="101.06 89.08 101.06 120 18.06 120 18.06 8 101.06 8 101.06 73.05 104.06 75.21 104.06 5 15.06 5 15.06 123 104.06 123 104.06 91.24 101.06 89.08"/></svg>